<svg id="Calque_1" data-name="Calque 1" xmlns="http://www.w3.org/2000/svg" viewBox="0 0 1324.91 2024.29"><defs><style>.cls-1{fill:#fff;}</style></defs><path class="cls-1" d="M-171-141.74c-18.91-11.25-61.06,23-90.35,50.06a34.51,34.51,0,0,1-26.16,9l-178.8-14.3,70.39-15.94c22.84-5.17,84.78-19.66,96.95-24.53,12.88-5.15,43.17-28.94,58.19-63.08,10.34-23.51,12.67-40,6.93-48.91-9.92-15.43-49.24-16-87.28-16.53-43-.61-106.22,56.78-126.93,78.94l-20.36,21.79,1.33-29.79c1.91-42.61,21.85-77,57.68-99.44,28-17.53,58-23.13,69.62-24.73,3.79-.52,7.17-1,10.33-1.64,134.41-24.73,213.42-21.48,256-14.39A108.85,108.85,0,0,1-2-289.48C85.4-162,133-143.35,135.49-142.45l.62.15.28.16L320.48-70.47A112,112,0,0,1,375.75-29q8.83-19.48,16.54-34.39c19.64-38,30.09-46.23,37-49.15,20.94-8.84,42.74,1,49.9,4.27l1.07.49c4.8,2.11,18.47,10.12,23.19,16.07,21,26.45,69.62,96.14,68.3,171.84-1,58.09-42.44,116.79-77,155.81a476.42,476.42,0,0,0-64,92.6c-20.28,38.23-38.21,71.43-53.3,98.68l-3.36,6.07c-24.86,45-46.33,83.92-99.9,103.11L269.6,538a303.37,303.37,0,0,0-40.91,18.16l-9.41,5.06c-16.63,9-24.22,13-66.41,33.61-18.53,9-28.69,19.29-30.21,30.52-2.47,18.22,17.7,38.21,26.49,46a213.38,213.38,0,0,1,26.42,28c33.15,42.14,114.53,147.92,154.29,220,47.93,86.87,180.28,270.54,188.3,281.66,5.78,6.34,39.1,44.46,32.71,73.22-1.68,7.53-6.76,17.77-21.45,23.75a65.34,65.34,0,0,1-24.73,5.08c-12.28,0-24.18-3.86-35.2-11.52a80.06,80.06,0,0,1-20.89-21.46l-.84-1.36-.41-1.54c-27.07-100.31-90.42-206-138.79-277C259.23,917.76,215,865.75,209.25,859c-6.07-4.82-48.86-38.29-100.16-64.22C60.2,770.07-6.64,747.16-47.48,778.41c-88.86,68-286.73,112.82-295.11,114.7l-.79.17-.82.06a773.91,773.91,0,0,1-93.78.17c-67.62-4.26-110.06-18.38-126.14-42-6.68-9.8-12.29-26.36-1.21-49.74,37.14-92.69,22.46-136.74,21.17-140.23-17.84-34.81-21.13-62.14-9.79-81.23,12.35-20.78,37.1-23.23,42-23.52,48.14-7,72.14-19.88,83.81-29.41a22.21,22.21,0,0,0,8.21-17.33,20.8,20.8,0,0,0-5.55-14.34c-10.72,1.92-21.61,3.91-32.27,5.9l-.19,0c-.86.14-85.77,14.4-127.26,23.62-16.83,3.74-30.63,1.59-41-6.4-14.9-11.46-16.09-30-16.18-32.05-.06-1.4-.27-14.11,11-25.09,12-11.6,31.7-16.49,58.66-14.51,36.92,2.7,49.27,4.4,66.37,6.74,9.78,1.34,21.74,3,41.28,5.2-40.41-14.09-85.83-30.17-96.81-35-8.51-3.76-20-8.62-29.89-12.8a47.27,47.27,0,0,1-37.32,25.48c-15.28,1.4-28.35-4.65-37.81-17.5-8.36-11.35-6.92-19.86-4.24-25,5.42-10.37,19.63-14.88,44.72-14.21a95.71,95.71,0,0,1,19.14,2.44l2.66-20.38a41.75,41.75,0,0,0-14.93-37.65c-9.75-7.89-22.51-16.63-37.93-26-6.15-3.73-24.87-15.06-20.58-31.21a18.81,18.81,0,0,1,1.72-4.27c-12.56-3.42-21.62-6.06-24.54-6.92-25.74-2.76-42.23-11.18-49-25.06s-1.46-28.74,2.72-35.44l.37-.59.45-.54C-640.6,65.25-590.35-17.21-566.83-63.63c23.27-45.91,25.83-66.79,26.11-70.56-13.23-72.52-15.15-143.87-5.71-212.1A592.4,592.4,0,0,1-502-503.95c37.37-84.83,81.58-130,83.45-131.86l7.74-7.81,88.41-77.64-66,84.47a184.28,184.28,0,0,1-14.5,16.46h0c-.43.44-43.68,44.77-79.37,126.2-32.87,75-65.91,197.85-36.59,357.12l.14.77,0,.78c.1,2.29.15,23.89-26,76.73C-579,10.66-640.9,100.3-728.73,207.72c-.94,1.82-4,8.55-1.39,13.78,3.24,6.45,15.08,11.14,32.48,12.88l1,.11,1,.3c.27.08,19.62,5.85,45.27,12.42a187.2,187.2,0,0,1,24.69-4.84c19.65-2.69,38.42-3.27,40.68-3.34a266,266,0,0,1,29.31.1c23.65,1.5,37.59,6.38,43.89,15.37,4.12,5.9,4.66,13.1,1.52,20.28-6.09,13.92-26.35,14.38-43.33,13.22-15.78-1.07-36.78-4.44-62.41-10-11.56-2.51-23.06-5.25-33.72-7.93a34,34,0,0,0-5.82,2.63c1.37,1.46,4.11,3.84,9.42,7.06,16.28,9.85,29.86,19.16,40.39,27.68A63.89,63.89,0,0,1-582.8,365L-586,389.89c10.63,4.46,23.59,9.95,33.06,14.14,19.48,8.6,161.6,57.36,163,57.85l.69.24.66.33a45.26,45.26,0,0,0,9.4,2.9c12.41-2.06,22.74-3.68,30.84-4.83,6.94-1,12.17-1.63,16-2a51.42,51.42,0,0,1,5.59-.24c9.17.22,11.54,6.66,12.05,8.63,1.09,4.21-.13,10.32-7.18,13.66a49.68,49.68,0,0,1-5.51,2.11c-21.33,7.11-39.22,6.9-51.7,4.93-7.25,1.21-14.95,2.53-22.93,3.92A43.45,43.45,0,0,1-397.94,510a44.13,44.13,0,0,1-16.29,34.41c-20.17,16.47-52.16,28-95.09,34.22l-.66.1h-.67c-.11,0-17.33.75-24.45,12.91s-3.36,32.91,10.74,60.27l.27.58c.91,2.05,21.76,51.38-20.95,157.78l-.29.65c-7.34,15.3-3.86,23.41-.61,28.18,11.7,17.18,50.45,28.69,109.12,32.4a772.41,772.41,0,0,0,90.23-.07c14-3.21,203.48-47.57,285.74-110.52C-38.32,743.7-8.79,737.71,27,743.12c27.29,4.14,58.37,15,92.38,32.2C176.5,804.28,222,841,223.86,842.53l.74.6.62.72c.48.55,48,55.39,101.36,133.68,49.11,72,113.39,179.32,141.53,282.15,4.06,5.78,23.3,30,53,17.9,6.29-2.57,7.72-5.7,8.27-8.15,3-13.24-14.51-39.56-27.85-54l-.45-.48-.38-.53C495,1206.5,360.43,1020.28,310.59,930c-39-70.65-119.5-175.29-152.31-217a191.21,191.21,0,0,0-23.68-25.09c-17.36-15.31-37.31-39.08-33.74-65.42,2.57-19,16.83-34.89,42.38-47.34,41.78-20.36,49.25-24.38,65.6-33.19,2.82-1.53,5.9-3.19,9.46-5.09a325.91,325.91,0,0,1,43.88-19.48l4.58-1.64c45.75-16.39,63.5-48.54,88.06-93l3.37-6.09c15-27.13,32.9-60.21,53.11-98.33a499,499,0,0,1,67-96.88c26.29-29.67,70.53-87.52,71.48-141.6C551,9.33,501.56-58.67,486.27-78c-1.94-2.1-10.92-8-14.87-9.69-.37-.16-.8-.35-1.28-.58-5.53-2.5-20.2-9.14-32.27-4-.78.36-8.27,4.54-26.31,39.55-6.83,13.26-14.43,29.48-22.7,48.44C397.45,17,402.11,35.13,402.7,49.76c1.2,30.21-1.24,66.77-3.83,105.48-.83,12.37-1.69,25.15-2.45,38-.72,12.3-.49,21.85-.32,28.83.28,11.73.49,20.21-7.83,24-7.43,3.43-14.08-1.66-16.58-3.58-3-2.26-6.66-5.59-11.79-10.19-4.26-3.82-9.57-8.59-16.07-14.2-47.25-40.72-36.89-73.53-34.39-79.6C311.09,133.9,331,77.9,354.26,21.05q5.44-13.29,10.6-25.32a89.62,89.62,0,0,0-51.71-45.46l-.44-.16-184-71.63c-3.35-1.11-16.9-6.45-39.86-26.14-32.68-28-69.36-71.56-109-129.37A86.74,86.74,0,0,0-77-313.49c-40.89-6.8-117.18-9.83-248.44,14.33-3.5.64-7.2,1.23-11.32,1.8-20.9,2.87-82.38,16-102.21,71.15,28.82-25.64,77.28-62.28,118.19-61.72,47.85.68,89.17,1.27,105.47,26.64,10.26,16,8.58,38.12-5.3,69.66-17.16,39-51.36,67.13-70.16,74.65-5.51,2.21-18.11,5.7-32.61,9.4l37.66,3a12.47,12.47,0,0,0,9.46-3.26c29.48-27.27,83.88-68.77,116.94-40.21h0A53.48,53.48,0,0,1-146.23-131l13.69,34.42-23.52-33.69-2.48-2.31a61.64,61.64,0,0,0-7.85-6.2Zm-449.4,627.8c.12,1.34,1.19,10.55,7.7,15.46,5,3.76,12.64,4.54,22.73,2.29,35.45-7.88,101.73-19.32,122.21-22.8-19.64-2.24-31.7-3.89-41.55-5.24-17.32-2.38-28.76-3.95-65-6.6-24.93-1.83-36.23,3.33-41.33,8A13.77,13.77,0,0,0-620.42,486.06Zm0-.16v0Zm289.11-25.18Zm-319.12-56.35a20.72,20.72,0,0,0,1.27,1.91c4.85,6.58,10.6,9.32,18.1,8.64a24.89,24.89,0,0,0,18.26-11.06A74.6,74.6,0,0,0-627,402.11C-641.19,401.73-647.74,403.33-650.45,404.37Zm-.78-1.71Zm63.17-141.5c35.89,6.56,50.27,5.64,55.73,4.43-3.33-1.5-10.52-3.65-25.3-4.54a248,248,0,0,0-26.16-.05l-.41,0S-585.65,261.06-588.06,261.16ZM329.6,147.38c-.88,2.33-7.36,23.14,28.59,54.14,6.35,5.47,11.55,10.12,15.77,13.92-.09-6.35,0-14.12.5-23.45.77-13,1.62-25.81,2.45-38.22,2.56-38.1,5-74.1,3.8-103.13-.28-7-1.84-15.37-4.6-24.88l-1.69,4.11c-23.93,58.42-44.14,115.75-44.34,116.33l-.33,1Z" transform="translate(753.14 721.26)"/></svg>