<svg width="2813" height="2813" viewBox="0 0 2813 2813" fill="none" xmlns="http://www.w3.org/2000/svg">
<path d="M1406.5 0C629.793 0 0 629.669 0 1406.44C0 2183.21 629.731 2812.88 1406.5 2812.88C2183.33 2812.88 2813 2183.21 2813 1406.44C2813 629.669 2183.33 0 1406.5 0ZM1406.5 420.541C1663.51 420.541 1871.77 628.866 1871.77 885.75C1871.77 1142.7 1663.51 1350.96 1406.5 1350.96C1149.62 1350.96 941.353 1142.7 941.353 885.75C941.353 628.866 1149.62 420.541 1406.5 420.541ZM1406.19 2445.16C1149.86 2445.16 915.096 2351.81 734.017 2197.29C689.905 2159.67 664.452 2104.5 664.452 2046.61C664.452 1786.08 875.309 1577.57 1135.9 1577.57H1677.22C1937.88 1577.57 2147.93 1786.08 2147.93 2046.61C2147.93 2104.56 2122.6 2159.61 2078.43 2197.23C1897.41 2351.81 1662.58 2445.16 1406.19 2445.16Z" fill="#433E3F"/>
</svg>
